<svg width="200" height="50" xmlns="http://www.w3.org/2000/svg">
  <!-- Text section -->
  <text x="0%" y="50%" dominant-baseline="middle" font-size="24" fill="white">
    <tspan>Movie</tspan>
    <tspan fill="#7b89eb" font-weight="900">Space</tspan>
  </text>

  <svg
    xmlns="http://www.w3.org/2000/svg"
    viewBox="2.82 22.85 94.44 54.33"
    x="90"
    y="-6"
    height="30"
    width="30"
  >
    <g fill="white">
      <path d="M96.89 44.47A0.78 0.78 0 1 0 95.7 43.84 0.82 0.82 0 0 0 96.89 44.47" />
      <path d="M78.41 65.85A0.72 0.72 0 1 0 78.06 64.66 0.76 0.76 0 0 0 78.41 65.85" />
      <path d="M95.91 51.1A0.63 0.63 0 1 0 94.91 51.39 0.66 0.66 0 0 0 95.91 51.1" />
      <path d="M17.45 64.35A0.54 0.54 0 0 1 17.6 63.29 0.55 0.55 0 1 1 17.44 64.37Z" />
      <path d="M20.61 33.08A0.5 0.5 0 1 0 20.33 33.91 0.53 0.53 0 0 0 20.61 33.08" />
      <path d="M93 58.9A0.54 0.54 0 0 1 92.77 59.82 0.55 0.55 0 0 1 93.01 58.82V58.9Z" />
      <path d="M8.28 36.93A0.43 0.43 0 1 1 9 37 0.52 0.52 0 0 1 8.27 36.93Z" />
      <path d="M83.59 37.77A0.45 0.45 0 1 1 84.18 37.52 0.59 0.59 0 0 1 83.59 37.78Z" />
      <path d="M5.82 60.41A0.39 0.39 0 0 1 5.31 60.41V59.91C5.59 59.63 6.13 60.16 5.84 60.44Z" />
      <path d="M88.65 61.48A0.36 0.36 0 0 1 88.11 61.18 0.4 0.4 0 0 1 88.67 60.87 0.6 0.6 0 0 1 88.67 61.53Z" />
      <path d="M78.83 36.24A0.5 0.5 0 0 1 78.41 36.17 0.49 0.49 0 0 1 78.84 35.57 0.67 0.67 0 0 1 78.84 36.25Z" />
      <!-- Main Shape -->
      <path d="M87.66 42.26C90.66 44.01 93.75 46.8 93.39 50.26 93.13 52.75 91.11 54.67 89.07 56.12A34.2 34.2 0 0 1 76.45 61.65C74.45 62.08 72.09 62.49 71 64.26A27.73 27.73 0 0 1 48 77.18 27.73 27.73 0 0 1 24.85 64.48C23.61 62.48 20.99 62.07 18.71 61.56A32.5 32.5 0 0 1 8 57C5.55 55.4 3.15 53.16 2.85 50.25 2.45 46.25 6.03 43.11 9.51 41.2A41.2 41.2 0 0 1 20.19 37.2C22.1 36.77 24.26 36.34 25.35 34.71A26.92 26.92 0 0 1 68.6 32.84C69.84 34.38 70.96 36.1 72.6 37.17A1.27 1.27 0 0 1 74.27 36.07L74.38 37.32A41.8 41.8 0 0 1 87.63 42.27M71.75 59.82A25.55 25.55 0 0 0 48.13 24.41 25.55 25.55 0 0 0 24.63 59.89 3.6 3.6 0 0 0 25.46 61.22 3.8 3.8 0 0 0 27.46 61.95 131.6 131.6 0 0 0 68.24 62.43 4.8 4.8 0 0 0 70.66 61.61 4.44 4.44 0 0 0 71.81 59.82M62.7 70.64A26.9 26.9 0 0 0 68.23 65.4Q69.03 64.4 69.74 63.32A137.5 137.5 0 0 1 26.63 63.56 25.45 25.45 0 0 0 62.7 70.64M72.58 61.49A40.9 40.9 0 0 0 87.24 56.39C89.96 54.81 92.78 52.34 92.52 49.21 92.31 46.61 90.03 44.7 87.81 43.33A40.9 40.9 0 0 0 71.94 37.63 27.46 27.46 0 0 1 72.58 61.49M8.43 55.14A38.6 38.6 0 0 0 22.84 60.88 28.75 28.75 0 0 1 22.94 38.57 42.4 42.4 0 0 0 8.84 44C6.53 45.5 4.22 47.87 4.67 50.59 5 52.57 6.73 54 8.43 55.14" />
    </g>
  </svg>
</svg>
